<svg xmlns="http://www.w3.org/2000/svg" viewBox="0 0 32 32">
  <rect width="32" height="32" rx="7" fill="#0066FF"/>
  <!-- Pin logo centré, viewBox 100x120 → scale 0.22 → 22x26.4, centré dans 32x32 -->
  <g transform="translate(5, 3) scale(0.22)">
    <path d="M50 5 C27 5,8 24,8 46 C8 68,50 118,50 118 C50 118,92 68,92 46 C92 24,73 5,50 5Z" fill="white"/>
    <circle cx="50" cy="44" r="31" fill="#0066FF"/>
    <circle cx="57" cy="26" r="4.5" fill="white"/>
    <path d="M59 33 L54 33 L51 42 L55 42 L57 36Z" fill="white"/>
    <path d="M55 37 L65 34 L65 36 L56 39Z" fill="white"/>
    <path d="M51 42 L50 52 L61 52 L61 55 L64 55 L64 50 L54 50 L55 42Z" fill="white"/>
    <path d="M36 52 A12 12 0 1 0 60 52 A12 12 0 1 0 36 52Z M40 52 A8 8 0 1 0 56 52 A8 8 0 1 0 40 52Z" fill="white" fill-rule="evenodd"/>
    <circle cx="63" cy="55" r="3" fill="white"/>
  </g>
</svg>
